<svg width="160" height="23" viewBox="0 0 160 23" fill="none" xmlns="http://www.w3.org/2000/svg">
<path d="M22.5631 9.09375C22.5631 8.69196 22.1345 8.53125 21.8131 8.47768L15.0898 7.5L12.0765 1.40625C11.9559 1.15178 11.7282 0.857142 11.4202 0.857142C11.1122 0.857142 10.8845 1.15178 10.764 1.40625L7.75056 7.5L1.02734 8.47768C0.692522 8.53125 0.277344 8.69196 0.277344 9.09375C0.277344 9.33482 0.451451 9.5625 0.612165 9.73661L5.48717 14.4777L4.33538 21.1741C4.32199 21.2679 4.30859 21.3482 4.30859 21.442C4.30859 21.7902 4.4827 22.1116 4.87109 22.1116C5.05859 22.1116 5.2327 22.0446 5.40681 21.9509L11.4202 18.7902L17.4336 21.9509C17.5943 22.0446 17.7818 22.1116 17.9693 22.1116C18.3577 22.1116 18.5184 21.7902 18.5184 21.442C18.5184 21.3482 18.5184 21.2679 18.505 21.1741L17.3532 14.4777L22.2148 9.73661C22.389 9.5625 22.5631 9.33482 22.5631 9.09375ZM56.8521 9.09375C56.8521 8.69196 56.4236 8.53125 56.1021 8.47768L49.3789 7.5L46.3655 1.40625C46.245 1.15178 46.0173 0.857142 45.7093 0.857142C45.4012 0.857142 45.1735 1.15178 45.053 1.40625L42.0396 7.5L35.3164 8.47768C34.9816 8.53125 34.5664 8.69196 34.5664 9.09375C34.5664 9.33482 34.7405 9.5625 34.9012 9.73661L39.7762 14.4777L38.6244 21.1741C38.611 21.2679 38.5977 21.3482 38.5977 21.442C38.5977 21.7902 38.7718 22.1116 39.1602 22.1116C39.3477 22.1116 39.5218 22.0446 39.6959 21.9509L45.7093 18.7902L51.7227 21.9509C51.8834 22.0446 52.0709 22.1116 52.2584 22.1116C52.6468 22.1116 52.8075 21.7902 52.8075 21.442C52.8075 21.3482 52.8075 21.2679 52.7941 21.1741L51.6423 14.4777L56.5039 9.73661C56.678 9.5625 56.8521 9.33482 56.8521 9.09375ZM91.1412 9.09375C91.1412 8.69196 90.7126 8.53125 90.3912 8.47768L83.668 7.5L80.6546 1.40625C80.534 1.15178 80.3064 0.857142 79.9983 0.857142C79.6903 0.857142 79.4626 1.15178 79.3421 1.40625L76.3287 7.5L69.6055 8.47768C69.2706 8.53125 68.8555 8.69196 68.8555 9.09375C68.8555 9.33482 69.0296 9.5625 69.1903 9.73661L74.0653 14.4777L72.9135 21.1741C72.9001 21.2679 72.8867 21.3482 72.8867 21.442C72.8867 21.7902 73.0608 22.1116 73.4492 22.1116C73.6367 22.1116 73.8108 22.0446 73.9849 21.9509L79.9983 18.7902L86.0117 21.9509C86.1724 22.0446 86.3599 22.1116 86.5474 22.1116C86.9358 22.1116 87.0965 21.7902 87.0965 21.442C87.0965 21.3482 87.0965 21.2679 87.0831 21.1741L85.9314 14.4777L90.793 9.73661C90.9671 9.5625 91.1412 9.33482 91.1412 9.09375ZM125.43 9.09375C125.43 8.69196 125.002 8.53125 124.68 8.47768L117.957 7.5L114.944 1.40625C114.823 1.15178 114.595 0.857142 114.287 0.857142C113.979 0.857142 113.752 1.15178 113.631 1.40625L110.618 7.5L103.895 8.47768C103.56 8.53125 103.145 8.69196 103.145 9.09375C103.145 9.33482 103.319 9.5625 103.479 9.73661L108.354 14.4777L107.203 21.1741C107.189 21.2679 107.176 21.3482 107.176 21.442C107.176 21.7902 107.35 22.1116 107.738 22.1116C107.926 22.1116 108.1 22.0446 108.274 21.9509L114.287 18.7902L120.301 21.9509C120.461 22.0446 120.649 22.1116 120.836 22.1116C121.225 22.1116 121.386 21.7902 121.386 21.442C121.386 21.3482 121.386 21.2679 121.372 21.1741L120.22 14.4777L125.082 9.73661C125.256 9.5625 125.43 9.33482 125.43 9.09375Z" fill="#FFB612"/>
<path d="M159.719 9.09375C159.719 8.69196 159.291 8.53125 158.969 8.47768L152.246 7.5L149.233 1.40625C149.112 1.15178 148.884 0.857142 148.576 0.857142C148.268 0.857142 148.041 1.15178 147.92 1.40625L144.907 7.5L138.184 8.47768C137.849 8.53125 137.434 8.69196 137.434 9.09375C137.434 9.33482 137.608 9.5625 137.768 9.73661L142.643 14.4777L141.492 21.1741C141.478 21.2679 141.465 21.3482 141.465 21.442C141.465 21.7902 141.639 22.1116 142.027 22.1116C142.215 22.1116 142.389 22.0446 142.563 21.9509L148.576 18.7902L154.59 21.9509C154.751 22.0446 154.938 22.1116 155.126 22.1116C155.514 22.1116 155.675 21.7902 155.675 21.442C155.675 21.3482 155.675 21.2679 155.661 21.1741L154.509 14.4777L159.371 9.73661C159.545 9.5625 159.719 9.33482 159.719 9.09375Z" fill="#888888"/>
</svg>
