<svg width="102" height="17" viewBox="0 0 102 17" fill="none" xmlns="http://www.w3.org/2000/svg">
<path d="M16.7143 7.07031C16.7143 6.76897 16.3929 6.64844 16.1518 6.60826L11.1094 5.875L8.84933 1.30469C8.75893 1.11384 8.58817 0.892857 8.35714 0.892857C8.12612 0.892857 7.95536 1.11384 7.86496 1.30469L5.60491 5.875L0.5625 6.60826C0.311384 6.64844 0 6.76897 0 7.07031C0 7.25112 0.13058 7.42187 0.251116 7.55246L3.90737 11.1083L3.04353 16.1306C3.03348 16.2009 3.02344 16.2612 3.02344 16.3315C3.02344 16.5926 3.15402 16.8337 3.44531 16.8337C3.58594 16.8337 3.71652 16.7835 3.8471 16.7132L8.35714 14.3426L12.8672 16.7132C12.9877 16.7835 13.1283 16.8337 13.269 16.8337C13.5603 16.8337 13.6808 16.5926 13.6808 16.3315C13.6808 16.2612 13.6808 16.2009 13.6708 16.1306L12.8069 11.1083L16.4531 7.55246C16.5837 7.42187 16.7143 7.25112 16.7143 7.07031ZM37.9311 7.07031C37.9311 6.76897 37.6097 6.64844 37.3686 6.60826L32.3262 5.875L30.0661 1.30469C29.9757 1.11384 29.805 0.892857 29.5739 0.892857C29.3429 0.892857 29.1722 1.11384 29.0818 1.30469L26.8217 5.875L21.7793 6.60826C21.5282 6.64844 21.2168 6.76897 21.2168 7.07031C21.2168 7.25112 21.3474 7.42187 21.4679 7.55246L25.1242 11.1083L24.2603 16.1306C24.2503 16.2009 24.2402 16.2612 24.2402 16.3315C24.2402 16.5926 24.3708 16.8337 24.6621 16.8337C24.8027 16.8337 24.9333 16.7835 25.0639 16.7132L29.5739 14.3426L34.084 16.7132C34.2045 16.7835 34.3451 16.8337 34.4858 16.8337C34.7771 16.8337 34.8976 16.5926 34.8976 16.3315C34.8976 16.2612 34.8976 16.2009 34.8876 16.1306L34.0237 11.1083L37.6699 7.55246C37.8005 7.42187 37.9311 7.25112 37.9311 7.07031ZM59.1479 7.07031C59.1479 6.76897 58.8265 6.64844 58.5854 6.60826L53.543 5.875L51.2829 1.30469C51.1925 1.11384 51.0218 0.892857 50.7907 0.892857C50.5597 0.892857 50.389 1.11384 50.2985 1.30469L48.0385 5.875L42.9961 6.60826C42.745 6.64844 42.4336 6.76897 42.4336 7.07031C42.4336 7.25112 42.5642 7.42187 42.6847 7.55246L46.341 11.1083L45.4771 16.1306C45.4671 16.2009 45.457 16.2612 45.457 16.3315C45.457 16.5926 45.5876 16.8337 45.8789 16.8337C46.0195 16.8337 46.1501 16.7835 46.2807 16.7132L50.7907 14.3426L55.3008 16.7132C55.4213 16.7835 55.5619 16.8337 55.7026 16.8337C55.9939 16.8337 56.1144 16.5926 56.1144 16.3315C56.1144 16.2612 56.1144 16.2009 56.1044 16.1306L55.2405 11.1083L58.8867 7.55246C59.0173 7.42187 59.1479 7.25112 59.1479 7.07031ZM80.3647 7.07031C80.3647 6.76897 80.0432 6.64844 79.8022 6.60826L74.7598 5.875L72.4997 1.30469C72.4093 1.11384 72.2386 0.892857 72.0075 0.892857C71.7765 0.892857 71.6057 1.11384 71.5153 1.30469L69.2553 5.875L64.2129 6.60826C63.9618 6.64844 63.6504 6.76897 63.6504 7.07031C63.6504 7.25112 63.781 7.42187 63.9015 7.55246L67.5578 11.1083L66.6939 16.1306C66.6839 16.2009 66.6738 16.2612 66.6738 16.3315C66.6738 16.5926 66.8044 16.8337 67.0957 16.8337C67.2363 16.8337 67.3669 16.7835 67.4975 16.7132L72.0075 14.3426L76.5176 16.7132C76.6381 16.7835 76.7787 16.8337 76.9194 16.8337C77.2107 16.8337 77.3312 16.5926 77.3312 16.3315C77.3312 16.2612 77.3312 16.2009 77.3211 16.1306L76.4573 11.1083L80.1035 7.55246C80.2341 7.42187 80.3647 7.25112 80.3647 7.07031ZM101.581 7.07031C101.581 6.76897 101.26 6.64844 101.019 6.60826L95.9766 5.875L93.7165 1.30469C93.6261 1.11384 93.4554 0.892857 93.2243 0.892857C92.9933 0.892857 92.8225 1.11384 92.7321 1.30469L90.4721 5.875L85.4297 6.60826C85.1786 6.64844 84.8672 6.76897 84.8672 7.07031C84.8672 7.25112 84.9978 7.42187 85.1183 7.55246L88.7746 11.1083L87.9107 16.1306C87.9007 16.2009 87.8906 16.2612 87.8906 16.3315C87.8906 16.5926 88.0212 16.8337 88.3125 16.8337C88.4531 16.8337 88.5837 16.7835 88.7143 16.7132L93.2243 14.3426L97.7344 16.7132C97.8549 16.7835 97.9955 16.8337 98.1362 16.8337C98.4275 16.8337 98.548 16.5926 98.548 16.3315C98.548 16.2612 98.548 16.2009 98.5379 16.1306L97.6741 11.1083L101.32 7.55246C101.451 7.42187 101.581 7.25112 101.581 7.07031Z" fill="#FFB612"/>
</svg>
