<svg width="89" height="87" viewBox="0 0 89 87" fill="none" xmlns="http://www.w3.org/2000/svg">
<path d="M56.643 41.4252C55.1225 42.5045 53.3344 43.1451 51.4742 43.277C51.0666 41.3326 49.955 41.1289 48.1394 42.6474C47.8631 42.8909 47.6146 43.1642 47.3984 43.4622C47.1876 43.7442 47.0536 44.076 47.0093 44.4252C46.994 44.5874 47.0355 44.75 47.1267 44.8851C47.2179 45.0202 47.3532 45.1194 47.5095 45.1659C48.4177 45.4252 49.3803 45.4252 50.2885 45.1659V45.4251C50.2885 49.9436 49.3992 52.8324 47.5095 54.1472C47.1659 54.4701 46.7121 54.6499 46.2405 54.6499C45.7689 54.6499 45.315 54.4701 44.9714 54.1472C44.2032 53.4259 43.7007 52.4669 43.5449 51.425C43.4183 50.3678 43.513 49.2957 43.8228 48.2769C43.9154 47.9807 44.008 47.6658 44.1377 47.351C44.3511 46.8291 44.5986 46.3219 44.8788 45.8325C45.3132 45.0146 45.8417 44.2502 46.4535 43.5548C46.6323 43.3349 46.7304 43.0604 46.7314 42.777C46.7242 42.6676 46.6799 42.564 46.6058 42.4832C46.5317 42.4023 46.4322 42.3492 46.3238 42.3326C46.1865 42.3102 46.0456 42.3301 45.9199 42.3896C45.7941 42.4491 45.6895 42.5455 45.6198 42.6659C44.5912 43.8403 43.7364 45.1562 43.0817 46.5733C42.8594 47.0311 42.6795 47.5084 42.5445 47.9992C42.3036 48.4251 42.0442 48.814 41.7849 49.2214C41.7122 49.41 41.619 49.5901 41.507 49.7584C41.3217 50.0917 41.1735 50.3325 41.0623 50.4991C40.9512 50.6658 40.803 50.8325 40.6177 51.0362C40.4739 51.2177 40.29 51.3635 40.0805 51.4621C40.0032 51.5483 39.9024 51.61 39.7905 51.6397C39.6785 51.6693 39.5604 51.6655 39.4506 51.6287C39.2854 51.5958 39.1155 51.5958 38.9503 51.6287C38.8207 51.6287 38.691 51.5361 38.5428 51.351C38.3946 51.1658 38.2834 50.9991 38.2278 50.888C38.143 50.7136 38.0688 50.5343 38.0055 50.351C38.0055 50.0732 37.8758 49.8695 37.8573 49.7399C37.8388 49.6103 37.8573 49.4251 37.7276 49.1473C37.6748 48.9728 37.6437 48.7924 37.635 48.6103C37.0421 46.1103 35.9491 45.7029 34.3558 47.4066C33.4633 48.4852 32.6638 49.6375 31.9659 50.851C31.8736 50.9638 31.787 51.0813 31.7065 51.2028C30.0392 53.962 29.1128 54.6657 28.9461 53.2583C28.8904 53.0396 28.8904 52.8104 28.9461 52.5917C28.9933 52.3114 29.0742 52.0378 29.1869 51.7769C29.3166 51.4621 29.4278 51.1843 29.5019 50.9436C29.6267 50.6302 29.7754 50.3269 29.9465 50.0362L30.3912 49.2584C30.5226 48.9899 30.6711 48.7301 30.8358 48.4806C31.0396 48.1103 31.1693 47.9251 31.2063 47.9251C31.7031 47.0336 32.2732 46.185 32.9107 45.3881C33.0608 45.1822 33.242 45.001 33.448 44.8511C33.6665 44.6743 33.91 44.5308 34.1705 44.4252C34.2753 44.3668 34.3933 44.3361 34.5133 44.3361C34.6332 44.3361 34.7512 44.3668 34.856 44.4252C34.9696 44.5095 35.0587 44.6226 35.114 44.7528C35.1694 44.883 35.189 45.0256 35.171 45.1659C35.171 45.5918 35.4674 45.6844 35.9305 45.4622C36.1506 45.3978 36.3438 45.2637 36.4808 45.0799C36.6178 44.8962 36.6913 44.6729 36.6901 44.4437C36.6558 44.1124 36.5327 43.7965 36.3338 43.5292C36.1349 43.262 35.8676 43.0533 35.56 42.9252C35.2727 42.7803 34.9555 42.7048 34.6337 42.7048C34.3119 42.7048 33.9947 42.7803 33.7074 42.9252C32.5217 43.4622 31.1507 45.2029 29.6131 48.1473L29.4093 48.5547C28.5218 50.3302 27.9274 52.2376 27.6493 54.2028C27.5196 56.0546 28.2606 56.4064 29.8539 55.4065C30.4408 55.0476 30.9559 54.5829 31.3731 54.0361C31.9126 53.3355 32.4135 52.606 32.8737 51.851C33.2129 51.2454 33.584 50.6581 33.9853 50.0917C34.0347 49.9416 34.1032 49.7985 34.1891 49.6658L34.6152 49.0177C34.7388 48.8179 34.8749 48.6262 35.0228 48.4436C35.208 48.1473 35.208 48.1473 35.3562 48.1473C35.4211 48.1375 35.4874 48.1443 35.5489 48.1669C35.6104 48.1896 35.6652 48.2274 35.7082 48.2769C35.8148 48.3626 35.8924 48.479 35.9305 48.6103L36.0788 49.0732C36.1507 49.2302 36.1886 49.4006 36.1899 49.5732C36.181 49.7336 36.181 49.8943 36.1899 50.0547C36.1899 50.2214 36.1899 50.3325 36.1899 50.3695C36.235 50.9613 36.4033 51.5372 36.684 52.0602C36.9648 52.5832 37.3518 53.0418 37.8202 53.4065C39.0615 54.0917 40.451 53.4065 41.9516 51.388C41.9156 52.1194 42.0339 52.8502 42.2988 53.5329C42.5638 54.2156 42.9693 54.835 43.4893 55.3509C43.8073 55.7429 44.2314 56.0351 44.711 56.1927C45.1906 56.3503 45.7055 56.3667 46.1942 56.2398C47.1922 55.9553 48.0907 55.3972 48.7878 54.6287C49.5597 53.823 50.1753 52.8811 50.6034 51.851C51.303 49.6229 51.6408 47.2971 51.6039 44.9622H52.1041C53.9512 44.5922 55.6807 43.7787 57.1432 42.5919C57.327 42.5034 57.473 42.352 57.5546 42.1651C57.6362 41.9782 57.648 41.7682 57.5879 41.5734C57.4397 41.1289 57.1062 41.0734 56.643 41.4252ZM48.4544 44.1289L48.8434 43.7215C48.9043 43.6242 48.9864 43.542 49.0837 43.481C49.1809 43.42 49.2907 43.3818 49.4048 43.3693C49.5189 43.3569 49.6344 43.3704 49.7425 43.4089C49.8507 43.4475 49.9486 43.51 50.0291 43.5918C49.7429 43.5524 49.4515 43.5805 49.178 43.6737C48.9046 43.767 48.6568 43.9228 48.4544 44.1289Z" fill="white"/>
<path d="M29.6495 43.4994C29.5246 43.4846 29.3981 43.5044 29.2837 43.5567C29.1693 43.6089 29.0715 43.6916 29.0011 43.7957C27.6919 45.4253 26.2653 47.2772 24.7215 49.3512C24.8882 46.3512 24.9994 43.3883 25.092 40.4625C25.092 40.1106 24.9438 39.9625 24.6474 40.0551C24.4433 40.0667 24.2465 40.1354 24.0795 40.2532C23.9125 40.3711 23.7819 40.5334 23.7025 40.7217C22.4743 43.9144 20.8895 46.9583 18.9783 49.7956C18.6636 50.1531 18.3296 50.4931 17.9779 50.8141C17.6762 51.1032 17.3247 51.3353 16.9404 51.4993C16.793 51.5731 16.6278 51.6035 16.4638 51.5871C16.2998 51.5707 16.1439 51.5082 16.0141 51.4067C15.7225 51.0768 15.5468 50.6606 15.5139 50.2215C15.5562 49.2276 15.7955 48.252 16.2179 47.3512C16.3846 46.8698 16.5513 46.4253 16.7181 45.9994C16.8848 45.5735 17.1812 44.9253 17.6259 44.0365C18.0705 43.1476 18.441 42.6661 18.756 42.592C18.9491 42.5553 19.1478 42.5594 19.3392 42.604C19.5307 42.6487 19.7106 42.7329 19.8676 42.8513C19.9689 42.9098 20.084 42.9406 20.201 42.9406C20.3181 42.9406 20.4331 42.9098 20.5345 42.8513C20.781 42.7217 20.9768 42.513 21.0903 42.2587C21.1686 42.1511 21.2108 42.0214 21.2108 41.8884C21.2108 41.7553 21.1686 41.6256 21.0903 41.518C20.9549 41.311 20.7755 41.1364 20.565 41.0065C20.3545 40.8766 20.118 40.7946 19.8722 40.7664C19.6264 40.7381 19.3775 40.7642 19.1429 40.8429C18.9084 40.9216 18.6941 41.0509 18.5151 41.2217C16.7445 42.7238 15.4557 44.714 14.8099 46.9438C13.7909 49.7586 13.6056 51.703 14.2911 52.7956C14.1244 53.3141 13.9021 53.5733 13.6797 53.5919C13.124 53.5919 12.2162 52.2956 10.9008 49.4993C10.5673 48.8327 10.345 48.3512 10.2153 48.0549C9.94547 47.6707 9.62799 47.3223 9.27047 47.0179C8.96396 46.5947 8.53828 46.2724 8.04773 46.092C7.74329 45.9956 7.42272 45.9607 7.10467 45.9893C6.78661 46.0179 6.47742 46.1095 6.1951 46.2586C5.55546 46.6243 5.03945 47.1724 4.71299 47.8327C4.30541 48.5981 3.99046 49.2154 3.76814 49.6845C3.56435 50.1845 3.36056 50.7956 3.13824 51.5363C2.49001 53.1392 1.97569 54.793 1.60056 56.4807C1.58214 56.44 1.57262 56.3958 1.57262 56.3511C1.57262 56.3064 1.58214 56.2622 1.60056 56.2214C1.60056 55.9745 1.60056 55.5671 1.60056 54.9992C1.60056 54.4313 1.60056 54.0425 1.60056 53.8326C1.64571 50.6897 1.89946 47.5532 2.36014 44.4439V44.2402C2.36014 43.9068 2.17487 43.7772 1.80435 43.8698C1.58498 43.8914 1.37889 43.9848 1.21808 44.1355C1.05727 44.2861 0.950758 44.4857 0.91508 44.7031C0.25189 48.3872 -0.0521313 52.1269 0.00728829 55.8696C-0.0149068 56.6315 0.198593 57.3816 0.618658 58.0177C0.685669 58.1179 0.773631 58.2024 0.876477 58.2653C0.979323 58.3283 1.0946 58.3682 1.21437 58.3822C1.33413 58.3963 1.45552 58.3843 1.57018 58.3469C1.68483 58.3096 1.79 58.2478 1.87845 58.1658C2.48851 57.6539 2.91728 56.9591 3.10119 56.1844C3.23088 55.814 3.5273 54.777 4.00898 53.1104C4.3611 51.842 4.81333 50.6036 5.36141 49.4067C5.48989 49.0883 5.65133 48.7842 5.84309 48.4994C5.98164 48.2686 6.16419 48.0672 6.38036 47.9068C6.47083 47.8218 6.57993 47.7591 6.69894 47.7237C6.81796 47.6883 6.9436 47.6813 7.06583 47.7031C7.37907 47.7575 7.66559 47.9138 7.88099 48.1475C8.71678 49.1573 9.34622 50.3213 9.73363 51.5734C9.79253 51.7877 9.87975 51.9932 9.993 52.1845C10.1597 52.5548 10.2709 52.7771 10.345 52.9252C10.4191 53.0733 10.5117 53.2956 10.6785 53.6104C10.8452 53.9252 10.9934 54.1659 11.1231 54.3696L11.5677 54.9622C11.719 55.1582 11.9079 55.3219 12.1235 55.4437C12.3333 55.5401 12.5501 55.6206 12.772 55.6844C12.993 55.7667 13.2364 55.7667 13.4574 55.6844L13.9947 55.4622C14.1846 55.3645 14.3447 55.2174 14.4579 55.0363L14.8284 54.4437C14.9367 54.2411 15.0296 54.0306 15.1063 53.8141C15.3489 53.9037 15.6077 53.9416 15.8659 53.9252C16.4759 53.87 17.0529 53.6237 17.5147 53.2215C18.1108 52.7397 18.6513 52.1931 19.1265 51.5919C19.7032 50.8656 20.2353 50.1049 20.7198 49.3142C21.2756 48.4253 21.7572 47.592 22.1648 46.7957C22.5724 45.9994 22.9985 45.2031 23.369 44.3513C23.2764 46.7031 23.1838 49.0734 23.0541 51.4623C21.2756 54.0795 19.5835 56.7338 17.9779 59.4251L15.9955 62.8139C15.4768 63.7398 14.8284 64.925 14.1429 66.425C13.4329 67.7327 12.8139 69.0877 12.2903 70.4805C11.8827 71.6841 11.4936 72.9989 11.1231 74.3878C10.778 75.7053 10.6097 77.0629 10.6229 78.4248C10.628 79.6525 10.8539 80.8694 11.2898 82.0173C11.6587 83.392 12.4412 84.6203 13.5315 85.5357C13.9584 85.9019 14.4723 86.1521 15.0239 86.2624C15.5754 86.3726 16.1461 86.3392 16.681 86.1654C17.3332 85.8849 17.921 85.4741 18.4085 84.9582C18.896 84.4423 19.2727 83.8322 19.5156 83.1654C20.1036 81.975 20.5871 80.7358 20.9606 79.4618C21.3867 78.0729 21.7202 76.8692 21.9425 75.7581C22.1648 74.647 22.4057 73.3137 22.628 71.5915C22.8503 69.8693 23.017 68.6101 23.1097 67.8879C23.2023 67.1657 23.3135 65.7398 23.4802 63.7954C23.6469 61.851 23.7581 60.5917 23.7951 60.0917C24.0545 57.277 24.2768 54.5363 24.4991 51.6845C26.253 49.2154 27.9945 46.8883 29.7236 44.7031C29.8166 44.6017 29.8864 44.4813 29.928 44.3501C29.9696 44.219 29.982 44.0803 29.9644 43.9439C29.9687 43.8454 29.9401 43.7482 29.883 43.6678C29.826 43.5873 29.7439 43.5281 29.6495 43.4994ZM20.3863 75.3878C20.3863 75.5174 20.3863 75.9618 20.1825 76.7211C19.9787 77.4803 19.9231 77.9988 19.8676 78.2766C19.812 78.5544 19.6823 78.9988 19.5526 79.6284C19.4404 80.1384 19.2919 80.6397 19.108 81.1284L18.5707 82.4247C18.3662 82.8784 18.131 83.3177 17.8667 83.7395C17.2924 84.6839 16.6625 85.0728 16.0141 84.9246C15.3449 84.7477 14.7445 84.3735 14.2911 83.8506C13.0241 82.4926 12.2877 80.7247 12.2162 78.8692C12.1042 77.8166 12.1042 76.7552 12.2162 75.7026C12.3761 74.549 12.6491 73.4139 13.0313 72.3137C13.4574 71.036 13.865 69.9434 14.2541 68.999C14.6431 68.0546 15.1989 66.925 15.8659 65.6472C16.5328 64.3694 17.0886 63.3509 17.4962 62.6473L19.0709 59.8695C20.2196 58.0177 21.5164 55.9992 22.98 53.8326C22.5758 61.0655 21.7095 68.2653 20.3863 75.3878Z" fill="white"/>
<path d="M88.9332 46.4067C88.9332 46.4067 88.9332 46.6845 88.7479 46.9622C88.6992 47.1636 88.6373 47.3615 88.5627 47.5548L88.3404 48.1289C88.2292 48.4252 88.1551 48.6474 88.081 48.7955C88.0069 48.9437 87.9328 49.1103 87.8402 49.3511C87.7514 49.5568 87.646 49.755 87.5252 49.9437L87.1361 50.4437C87.029 50.6167 86.8831 50.7625 86.71 50.8696C86.557 50.9911 86.3961 51.1025 86.2284 51.2029C86.0576 51.3131 85.8698 51.3944 85.6726 51.4436C85.3083 51.5187 84.9319 51.5128 84.5702 51.4264C84.2084 51.34 83.8701 51.1752 83.5791 50.9436C82.9233 50.4351 82.3701 49.8067 81.9488 49.0918C80.8582 46.8276 80.1747 44.3892 79.9294 41.8883L79.2439 44.5734C79.2439 44.7092 79.1698 45.0055 79.0216 45.4623C78.9104 45.8882 78.8363 46.24 78.7622 46.4808C78.6881 46.7215 78.5955 47.0733 78.4473 47.5363C78.3305 47.9134 78.1945 48.2842 78.0397 48.6474L77.5951 49.6844C77.4529 50.0269 77.2792 50.3554 77.0763 50.6659C76.8813 50.9487 76.671 51.2207 76.4464 51.4807C76.2321 51.7262 75.9823 51.9384 75.7054 52.1103C75.2937 52.4307 74.7816 52.5947 74.2603 52.5732C74.0589 52.5553 73.8631 52.4969 73.6848 52.4014C73.5065 52.3059 73.3494 52.1754 73.2229 52.0177C72.9166 51.599 72.6616 51.1452 72.4633 50.6659C72.2245 50.0703 72.0566 49.4488 71.9631 48.8141L71.6852 46.7956C71.6852 46.0919 71.5555 45.4252 71.5184 44.7771C71.4814 44.129 71.5184 43.5549 71.5184 43.0549V41.9253C71.5247 41.6857 71.607 41.4542 71.7536 41.2645C71.9001 41.0747 72.1032 40.9365 72.3336 40.8697C72.7597 40.6846 72.9635 40.8697 72.9635 41.2401C72.9186 42.911 73.0053 44.5828 73.2229 46.24C73.5563 49.5548 74.1862 51.0548 75.0755 50.7585C75.5051 50.4714 75.8504 50.0751 76.0759 49.6103L76.6132 48.4437L77.1134 47.3141C77.2616 46.9808 77.4098 46.5363 77.5765 46.0178L77.9656 44.8141C77.9656 44.5178 78.1509 44.0549 78.2805 43.4808C78.4102 42.9067 78.5029 42.4438 78.5584 42.2401C78.6786 41.7956 78.7714 41.3441 78.8363 40.8883C78.9598 40.2216 79.0339 39.8142 79.0587 39.6661C79.0587 39.4994 79.1513 39.0735 79.281 38.3328C79.3645 37.9227 79.4264 37.5086 79.4662 37.092C79.5151 36.8769 79.625 36.6804 79.7827 36.526C79.9404 36.3717 80.1393 36.266 80.3555 36.2217C80.726 36.2217 80.9298 36.2217 80.9298 36.7032C81.1016 38.8656 81.3923 41.017 81.8006 43.1475C82.0583 44.8867 82.5898 46.5742 83.3753 48.1474C84.0422 49.277 84.6721 49.8511 85.2279 49.9992C85.5122 50.0226 85.7968 49.9579 86.0431 49.814C86.3276 49.6673 86.5508 49.4246 86.673 49.1289C86.8465 48.8186 86.9833 48.4893 87.0806 48.1474C87.2035 47.8137 87.3086 47.4737 87.3955 47.1289C87.5014 46.8592 87.582 46.5802 87.6364 46.2956C87.6854 46.076 87.8159 45.8832 88.0016 45.7561C88.1873 45.6289 88.4142 45.5769 88.6368 45.6104C88.9332 45.7586 89.0999 45.9993 88.9332 46.4067Z" fill="white"/>
<path d="M76.6326 4.03706C76.6326 3.79633 76.6326 3.48152 76.6326 3.12967C76.6261 2.817 76.5825 2.5062 76.5029 2.20376C76.4371 1.93417 76.3567 1.66835 76.262 1.40748C76.1535 1.15198 75.9889 0.924149 75.7804 0.740824C75.6163 0.573124 75.4292 0.429703 75.2246 0.314906C75.0049 0.13989 74.739 0.0326672 74.4593 0.00635613C74.1796 -0.019955 73.8983 0.0357862 73.6498 0.16676C73.1179 0.417618 72.6446 0.777206 72.2604 1.2223C71.8543 1.67108 71.5057 2.16874 71.2229 2.70375C71.0191 3.07412 70.8338 3.463 70.6671 3.85188C70.4833 4.27501 70.3225 4.70772 70.1854 5.14815C70.0372 5.61111 69.926 6.01851 69.8149 6.37036C69.6826 6.80789 69.5774 7.25318 69.4999 7.70367C69.3888 8.25921 69.3147 8.68513 69.2406 8.9629C69.1664 9.24068 69.1109 9.70363 69.0182 10.3333C68.9256 10.9629 68.87 11.3518 68.833 11.5925C68.7959 11.8332 68.7403 12.2591 68.6477 12.9258C68.585 13.3123 68.5417 13.7016 68.518 14.0924C67.8881 18.9812 67.425 25.2034 67.1285 32.8514C67.1285 33.7217 67.1285 35.4254 67.0174 37.9439C65.7946 40.8327 64.6275 43.3327 63.5159 45.3512C62.4687 47.3411 61.1466 49.1739 59.5883 50.7955C57.5689 52.8695 56.0868 53.6658 55.179 53.1658C54.5862 52.8325 54.9197 51.314 56.1795 48.4622C56.9439 46.7217 58.0603 45.158 59.4586 43.8697C60.0158 43.3147 60.7263 42.9389 61.4987 42.7904C62.2712 42.6419 63.0704 42.7276 63.7938 43.0364C64.0902 43.129 64.3866 43.0364 64.6831 42.6105C64.9795 42.1845 65.1462 41.7586 64.6831 41.5734C63.9834 41.3015 63.2345 41.1791 62.4846 41.2142C61.7347 41.2493 61.0006 41.441 60.3294 41.7771C58.9238 42.4946 57.7249 43.5591 56.8464 44.8697C55.865 46.2743 55.068 47.7991 54.475 49.4066C53.9316 50.8522 53.5948 52.367 53.4746 53.9066C53.4746 54.2399 53.4746 54.4436 53.7155 54.4621C54.3181 54.6288 54.9436 54.6976 55.5681 54.6658C56.1485 54.6225 56.7179 54.4849 57.254 54.2584C57.8111 54.0307 58.3396 53.7386 58.8287 53.3881C59.379 53.0032 59.8881 52.5626 60.3479 52.0733C60.8481 51.5548 61.3113 51.0177 61.7374 50.4992C62.1635 49.9807 62.5896 49.4066 63.0157 48.74C63.4418 48.0733 63.8494 47.4252 64.1829 46.8882C64.5163 46.3511 64.8869 45.6289 65.2574 44.9252C65.6279 44.2215 65.9429 43.5919 66.2022 43.0734C66.4616 42.5549 66.721 41.9438 67.0174 41.2216C66.9433 44.9252 66.9433 52.0794 67.0174 62.6842C67.0174 63.1286 67.2397 63.2397 67.7029 63.0175C67.9169 62.955 68.1057 62.8264 68.2422 62.6501C68.3786 62.4738 68.4557 62.2589 68.4624 62.0361C68.4624 60.3879 68.4624 58.3324 68.4624 56.1287C68.4624 53.9251 68.4624 51.8325 68.4624 50.2029C68.4624 48.5733 68.4624 46.4993 68.4624 44.2401V38.2772C72.7958 28.491 75.5053 18.0645 76.4844 7.40737C76.4844 7.40737 76.4844 7.07405 76.4844 6.68516C76.5023 6.4015 76.5023 6.11699 76.4844 5.83333C76.4844 5.66666 76.4844 5.35186 76.4844 4.94445C76.5664 4.64822 76.6161 4.34399 76.6326 4.03706ZM75.1875 5.88888C75.1875 6.49998 75.1875 6.94442 75.1875 7.25923C75.1875 7.57404 75.1875 7.9444 75.0578 8.38884V8.66661C74.004 17.6274 71.7418 26.4045 68.3328 34.7588C68.4187 26.3826 69.1433 18.0252 70.5003 9.75919C70.5589 9.54649 70.6022 9.3299 70.63 9.11105C70.63 8.79624 70.7227 8.49995 70.7782 8.20366C70.8338 7.90737 70.9265 7.537 71.0006 7.05553C71.0747 6.57406 71.1858 6.18517 71.2785 5.77777L71.6305 4.57409C71.7499 4.17486 71.8985 3.78493 72.0751 3.40744C72.2262 3.09062 72.3931 2.78159 72.5753 2.48153C72.7206 2.23387 72.9163 2.01939 73.1496 1.85192C73.2351 1.77677 73.3351 1.71992 73.4435 1.68489C73.5518 1.64985 73.6662 1.63737 73.7795 1.64822C73.924 1.61651 74.0746 1.62766 74.2128 1.68029C74.351 1.73293 74.4709 1.82476 74.5576 1.94451C74.7816 2.25571 74.9219 2.61914 74.9652 3.00004C74.9652 3.463 75.1134 3.92595 75.169 4.31484C75.2029 4.8141 75.2091 5.31486 75.1875 5.81481V5.88888Z" fill="white"/>
<path d="M31.776 80H33.888L37.648 68.8H35.344L32.832 77.088L30.32 68.8H28.016L31.776 80ZM38.6125 69.616C38.6125 70.336 39.1405 70.896 39.8925 70.896C40.6445 70.896 41.1725 70.336 41.1725 69.616C41.1725 68.896 40.6445 68.336 39.8925 68.336C39.1405 68.336 38.6125 68.896 38.6125 69.616ZM40.8845 80V71.936H38.9005V80H40.8845ZM42.7974 75.968C42.7974 77.872 43.9014 80.128 46.6694 80.128C48.6054 80.128 49.7094 79.2 50.3334 77.776L48.7334 77.184C48.2374 78.016 47.6934 78.432 46.7814 78.432C45.5654 78.432 44.9254 77.504 44.8774 76.608H50.4294V75.792C50.4294 74.048 49.3574 71.808 46.6694 71.808C43.9014 71.808 42.7974 74.064 42.7974 75.968ZM44.9254 75.04C45.0534 74.288 45.6774 73.504 46.6694 73.504C47.7254 73.504 48.2374 74.24 48.3974 75.04H44.9254ZM52.7548 73.632V77.152C52.7548 79.152 53.8748 80.128 55.7148 80.128C56.1468 80.128 56.5788 80.048 57.0268 79.84L56.5628 78.24C56.2908 78.384 56.0668 78.432 55.7948 78.432C55.1068 78.432 54.7388 78.128 54.7388 77.12V73.632H56.8668V71.936H54.7388V68.672L52.7548 69.92V71.936H51.5068V73.632H52.7548ZM60.7484 80V76.784C60.7484 74.672 61.6284 73.504 62.5884 73.504C63.2764 73.504 63.7404 73.872 63.7404 74.832V80H65.7244V74.24C65.7244 72.624 64.7004 71.808 63.2444 71.808C62.2044 71.808 61.3404 72.384 60.7484 73.232V71.936H58.7644V80H60.7484ZM67.483 77.68C67.483 79.28 68.571 80.128 69.931 80.128C71.083 80.128 71.851 79.664 72.411 78.976L72.619 80H74.251V75.184C74.251 72.624 72.763 71.808 70.859 71.808C69.195 71.808 68.043 72.704 67.787 74.048L69.467 74.432C69.723 73.68 70.299 73.504 70.859 73.504C71.579 73.504 72.267 73.792 72.267 74.688V75.04H70.923C68.875 75.04 67.483 76.08 67.483 77.68ZM69.563 77.648C69.563 76.928 70.091 76.608 70.939 76.608H72.267V76.768C72.267 77.808 71.291 78.432 70.395 78.432C69.835 78.432 69.563 78.032 69.563 77.648ZM78.2484 80V77.04C78.2484 74.624 79.0164 73.504 79.9924 73.504C80.5844 73.504 80.9844 73.808 80.9844 74.624V80H82.9684V76.864C82.9684 74.576 83.7524 73.504 84.7124 73.504C85.3044 73.504 85.7044 73.808 85.7044 74.624V80H87.6884V74.288C87.6884 72.736 86.8084 71.808 85.2884 71.808C84.2804 71.808 83.4004 72.432 82.8244 73.472C82.4564 72.304 81.5764 71.808 80.5684 71.808C79.5284 71.808 78.8404 72.336 78.2484 73.232V71.936H76.2644V80H78.2484Z" fill="white"/>
</svg>
