<svg width="89" height="87" viewBox="0 0 89 87" fill="none" xmlns="http://www.w3.org/2000/svg">
<path d="M56.643 41.4253C55.1225 42.5045 53.3344 43.1452 51.4742 43.2771C51.0666 41.3327 49.955 41.129 48.1394 42.6475C47.8631 42.891 47.6146 43.1642 47.3984 43.4623C47.1876 43.7443 47.0536 44.076 47.0093 44.4252C46.994 44.5875 47.0355 44.7501 47.1267 44.8852C47.2179 45.0203 47.3532 45.1195 47.5095 45.166C48.4177 45.4253 49.3803 45.4253 50.2885 45.166V45.4252C50.2885 49.9437 49.3992 52.8325 47.5095 54.1473C47.1659 54.4702 46.7121 54.65 46.2405 54.65C45.7689 54.65 45.315 54.4702 44.9714 54.1473C44.2032 53.426 43.7007 52.467 43.5449 51.4251C43.4183 50.3678 43.513 49.2958 43.8228 48.277C43.9154 47.9807 44.008 47.6659 44.1377 47.3511C44.3511 46.8292 44.5986 46.3219 44.8788 45.8326C45.3132 45.0147 45.8417 44.2502 46.4535 43.5549C46.6323 43.335 46.7304 43.0605 46.7314 42.7771C46.7242 42.6677 46.6799 42.564 46.6058 42.4832C46.5317 42.4024 46.4322 42.3493 46.3238 42.3327C46.1865 42.3103 46.0456 42.3301 45.9199 42.3897C45.7941 42.4492 45.6895 42.5456 45.6198 42.666C44.5912 43.8404 43.7364 45.1562 43.0817 46.5733C42.8594 47.0312 42.6795 47.5085 42.5445 47.9992C42.3036 48.4252 42.0442 48.814 41.7849 49.2214C41.7122 49.4101 41.619 49.5902 41.507 49.7585C41.3217 50.0918 41.1735 50.3325 41.0623 50.4992C40.9512 50.6659 40.803 50.8325 40.6177 51.0362C40.4739 51.2177 40.29 51.3635 40.0805 51.4622C40.0032 51.5484 39.9024 51.6101 39.7905 51.6397C39.6785 51.6694 39.5604 51.6656 39.4506 51.6288C39.2854 51.5959 39.1155 51.5959 38.9503 51.6288C38.8207 51.6288 38.691 51.5362 38.5428 51.351C38.3946 51.1659 38.2834 50.9992 38.2278 50.8881C38.143 50.7137 38.0688 50.5344 38.0055 50.3511C38.0055 50.0733 37.8758 49.8696 37.8573 49.74C37.8388 49.6103 37.8573 49.4252 37.7276 49.1474C37.6748 48.9728 37.6437 48.7925 37.635 48.6103C37.0421 46.1104 35.9491 45.703 34.3558 47.4067C33.4633 48.4853 32.6638 49.6376 31.9659 50.851C31.8736 50.9639 31.787 51.0813 31.7065 51.2029C30.0392 53.9621 29.1128 54.6658 28.9461 53.2584C28.8904 53.0397 28.8904 52.8105 28.9461 52.5918C28.9933 52.3115 29.0742 52.0379 29.1869 51.777C29.3166 51.4621 29.4278 51.1844 29.5019 50.9436C29.6267 50.6303 29.7754 50.3269 29.9465 50.0363L30.3912 49.2585C30.5226 48.99 30.6711 48.7302 30.8358 48.4807C31.0396 48.1104 31.1693 47.9252 31.2063 47.9252C31.7031 47.0337 32.2732 46.1851 32.9107 45.3882C33.0608 45.1823 33.242 45.0011 33.448 44.8512C33.6665 44.6744 33.91 44.5309 34.1705 44.4252C34.2753 44.3669 34.3933 44.3362 34.5133 44.3362C34.6332 44.3362 34.7512 44.3669 34.856 44.4252C34.9696 44.5096 35.0587 44.6227 35.114 44.7529C35.1694 44.8831 35.189 45.0257 35.171 45.166C35.171 45.5919 35.4674 45.6845 35.9305 45.4623C36.1506 45.3979 36.3438 45.2638 36.4808 45.08C36.6178 44.8963 36.6913 44.6729 36.6901 44.4438C36.6558 44.1125 36.5327 43.7965 36.3338 43.5293C36.1349 43.2621 35.8676 43.0534 35.56 42.9253C35.2727 42.7804 34.9555 42.7049 34.6337 42.7049C34.3119 42.7049 33.9947 42.7804 33.7074 42.9253C32.5217 43.4623 31.1507 45.203 29.6131 48.1474L29.4093 48.5548C28.5218 50.3303 27.9274 52.2376 27.6493 54.2028C27.5196 56.0547 28.2606 56.4065 29.8539 55.4065C30.4408 55.0477 30.9559 54.583 31.3731 54.0362C31.9126 53.3355 32.4135 52.6061 32.8737 51.851C33.2129 51.2454 33.584 50.6582 33.9853 50.0918C34.0347 49.9417 34.1032 49.7986 34.1891 49.6659L34.6152 49.0177C34.7388 48.818 34.8749 48.6262 35.0228 48.4437C35.208 48.1474 35.208 48.1474 35.3562 48.1474C35.4211 48.1376 35.4874 48.1443 35.5489 48.167C35.6104 48.1897 35.6652 48.2275 35.7082 48.277C35.8148 48.3627 35.8924 48.4791 35.9305 48.6103L36.0788 49.0733C36.1507 49.2302 36.1886 49.4007 36.1899 49.5733C36.181 49.7337 36.181 49.8944 36.1899 50.0548C36.1899 50.2214 36.1899 50.3325 36.1899 50.3696C36.235 50.9614 36.4033 51.5373 36.684 52.0603C36.9648 52.5833 37.3518 53.0418 37.8202 53.4066C39.0615 54.0917 40.451 53.4066 41.9516 51.3881C41.9156 52.1195 42.0339 52.8503 42.2988 53.533C42.5638 54.2157 42.9693 54.8351 43.4893 55.351C43.8073 55.7429 44.2314 56.0352 44.711 56.1928C45.1906 56.3504 45.7055 56.3667 46.1942 56.2398C47.1922 55.9554 48.0907 55.3973 48.7878 54.6288C49.5597 53.8231 50.1753 52.8812 50.6034 51.851C51.303 49.623 51.6408 47.2972 51.6039 44.9623H52.1041C53.9512 44.5923 55.6807 43.7788 57.1432 42.5919C57.327 42.5035 57.473 42.352 57.5546 42.1651C57.6362 41.9782 57.648 41.7683 57.5879 41.5734C57.4397 41.129 57.1062 41.0734 56.643 41.4253ZM48.4544 44.1289L48.8434 43.7215C48.9043 43.6243 48.9864 43.542 49.0837 43.481C49.1809 43.4201 49.2907 43.3819 49.4048 43.3694C49.5189 43.3569 49.6344 43.3705 49.7425 43.409C49.8507 43.4476 49.9486 43.5101 50.0291 43.5919C49.7429 43.5525 49.4515 43.5805 49.178 43.6738C48.9046 43.767 48.6568 43.9229 48.4544 44.1289Z" fill="#1C1C1E"/>
<path d="M29.6495 43.4993C29.5246 43.4845 29.3981 43.5043 29.2837 43.5566C29.1693 43.6088 29.0715 43.6915 29.0011 43.7956C27.6919 45.4252 26.2653 47.277 24.7215 49.3511C24.8882 46.3511 24.9994 43.3882 25.092 40.4624C25.092 40.1105 24.9438 39.9624 24.6474 40.0549C24.4433 40.0666 24.2465 40.1353 24.0795 40.2531C23.9125 40.371 23.7819 40.5333 23.7025 40.7216C22.4743 43.9143 20.8895 46.9582 18.9783 49.7955C18.6636 50.1529 18.3296 50.493 17.9779 50.814C17.6762 51.1031 17.3247 51.3352 16.9404 51.4992C16.793 51.573 16.6278 51.6034 16.4638 51.587C16.2998 51.5706 16.1439 51.5081 16.0141 51.4066C15.7225 51.0766 15.5468 50.6604 15.5139 50.2214C15.5562 49.2275 15.7955 48.2519 16.2179 47.3511C16.3846 46.8696 16.5513 46.4252 16.7181 45.9993C16.8848 45.5734 17.1812 44.9252 17.6259 44.0364C18.0705 43.1475 18.441 42.666 18.756 42.5919C18.9491 42.5552 19.1478 42.5593 19.3392 42.6039C19.5307 42.6486 19.7106 42.7328 19.8676 42.8512C19.9689 42.9097 20.084 42.9405 20.201 42.9405C20.3181 42.9405 20.4331 42.9097 20.5345 42.8512C20.781 42.7216 20.9768 42.5129 21.0903 42.2586C21.1686 42.151 21.2108 42.0213 21.2108 41.8883C21.2108 41.7552 21.1686 41.6255 21.0903 41.5179C20.9549 41.3109 20.7755 41.1363 20.565 41.0064C20.3545 40.8765 20.118 40.7945 19.8722 40.7663C19.6264 40.738 19.3775 40.7641 19.1429 40.8428C18.9084 40.9215 18.6941 41.0508 18.5151 41.2216C16.7445 42.7237 15.4557 44.7139 14.8099 46.9437C13.7909 49.7585 13.6056 51.7029 14.2911 52.7955C14.1244 53.314 13.9021 53.5732 13.6797 53.5917C13.124 53.5917 12.2162 52.2955 10.9008 49.4992C10.5673 48.8326 10.345 48.3511 10.2153 48.0548C9.94547 47.6706 9.62799 47.3222 9.27047 47.0178C8.96396 46.5946 8.53828 46.2722 8.04773 46.0919C7.74329 45.9955 7.42272 45.9606 7.10467 45.9892C6.78661 46.0178 6.47742 46.1094 6.1951 46.2585C5.55546 46.6242 5.03945 47.1723 4.71299 47.8326C4.30541 48.598 3.99046 49.2153 3.76814 49.6844C3.56435 50.1844 3.36056 50.7955 3.13824 51.5362C2.49001 53.1391 1.97569 54.7929 1.60056 56.4806C1.58214 56.4398 1.57262 56.3957 1.57262 56.351C1.57262 56.3063 1.58214 56.2621 1.60056 56.2213C1.60056 55.9744 1.60056 55.567 1.60056 54.9991C1.60056 54.4312 1.60056 54.0424 1.60056 53.8325C1.64571 50.6896 1.89946 47.5531 2.36014 44.4438V44.2401C2.36014 43.9067 2.17487 43.7771 1.80435 43.8697C1.58498 43.8913 1.37889 43.9847 1.21808 44.1353C1.05727 44.286 0.950758 44.4856 0.91508 44.703C0.25189 48.3871 -0.0521313 52.1267 0.00728829 55.8695C-0.0149068 56.6313 0.198593 57.3815 0.618658 58.0176C0.685669 58.1178 0.773631 58.2023 0.876477 58.2652C0.979323 58.3282 1.0946 58.3681 1.21437 58.3821C1.33413 58.3962 1.45552 58.3842 1.57018 58.3468C1.68483 58.3095 1.79 58.2477 1.87845 58.1657C2.48851 57.6538 2.91728 56.959 3.10119 56.1843C3.23088 55.8139 3.5273 54.7769 4.00898 53.1103C4.3611 51.8419 4.81333 50.6035 5.36141 49.4066C5.48989 49.0882 5.65133 48.7841 5.84309 48.4992C5.98164 48.2685 6.16419 48.0671 6.38036 47.9067C6.47083 47.8217 6.57993 47.759 6.69894 47.7236C6.81796 47.6882 6.9436 47.6812 7.06583 47.703C7.37907 47.7574 7.66559 47.9137 7.88099 48.1474C8.71678 49.1572 9.34622 50.3212 9.73363 51.5733C9.79253 51.7876 9.87975 51.9931 9.993 52.1844C10.1597 52.5547 10.2709 52.7769 10.345 52.9251C10.4191 53.0732 10.5117 53.2955 10.6785 53.6103C10.8452 53.9251 10.9934 54.1658 11.1231 54.3695L11.5677 54.9621C11.719 55.1581 11.9079 55.3218 12.1235 55.4436C12.3333 55.54 12.5501 55.6205 12.772 55.6843C12.993 55.7666 13.2364 55.7666 13.4574 55.6843L13.9947 55.4621C14.1846 55.3644 14.3447 55.2172 14.4579 55.0362L14.8284 54.4436C14.9367 54.241 15.0296 54.0305 15.1063 53.814C15.3489 53.9036 15.6077 53.9415 15.8659 53.9251C16.4759 53.8699 17.0529 53.6236 17.5147 53.2214C18.1108 52.7396 18.6513 52.193 19.1265 51.5918C19.7032 50.8655 20.2353 50.1048 20.7198 49.314C21.2756 48.4252 21.7572 47.5919 22.1648 46.7956C22.5724 45.9993 22.9985 45.203 23.369 44.3512C23.2764 46.703 23.1838 49.0733 23.0541 51.4622C21.2756 54.0794 19.5835 56.7337 17.9779 59.425L15.9955 62.8138C15.4768 63.7397 14.8284 64.9249 14.1429 66.4249C13.4329 67.7325 12.8139 69.0876 12.2903 70.4803C11.8827 71.684 11.4936 72.9988 11.1231 74.3877C10.778 75.7052 10.6097 77.0628 10.6229 78.4246C10.628 79.6524 10.8539 80.8693 11.2898 82.0172C11.6587 83.3919 12.4412 84.6202 13.5315 85.5356C13.9584 85.9018 14.4723 86.152 15.0239 86.2623C15.5754 86.3725 16.1461 86.3391 16.681 86.1652C17.3332 85.8848 17.921 85.474 18.4085 84.9581C18.896 84.4422 19.2727 83.8321 19.5156 83.1653C20.1036 81.9749 20.5871 80.7357 20.9606 79.4617C21.3867 78.0728 21.7202 76.8691 21.9425 75.758C22.1648 74.6469 22.4057 73.3136 22.628 71.5914C22.8503 69.8692 23.017 68.61 23.1097 67.8878C23.2023 67.1656 23.3135 65.7397 23.4802 63.7953C23.6469 61.8509 23.7581 60.5916 23.7951 60.0916C24.0545 57.2769 24.2768 54.5362 24.4991 51.6844C26.253 49.2153 27.9945 46.8882 29.7236 44.703C29.8166 44.6016 29.8864 44.4812 29.928 44.35C29.9696 44.2189 29.982 44.0802 29.9644 43.9438C29.9687 43.8453 29.9401 43.7481 29.883 43.6677C29.826 43.5872 29.7439 43.528 29.6495 43.4993ZM20.3863 75.3877C20.3863 75.5173 20.3863 75.9617 20.1825 76.721C19.9787 77.4802 19.9231 77.9987 19.8676 78.2765C19.812 78.5543 19.6823 78.9987 19.5526 79.6283C19.4404 80.1383 19.2919 80.6396 19.108 81.1283L18.5707 82.4246C18.3662 82.8783 18.131 83.3176 17.8667 83.7394C17.2924 84.6838 16.6625 85.0727 16.0141 84.9245C15.3449 84.7476 14.7445 84.3733 14.2911 83.8505C13.0241 82.4925 12.2877 80.7246 12.2162 78.8691C12.1042 77.8165 12.1042 76.755 12.2162 75.7025C12.3761 74.5489 12.6491 73.4138 13.0313 72.3136C13.4574 71.0359 13.865 69.9433 14.2541 68.9989C14.6431 68.0545 15.1989 66.9249 15.8659 65.6471C16.5328 64.3693 17.0886 63.3508 17.4962 62.6471L19.0709 59.8694C20.2196 58.0176 21.5164 55.9991 22.98 53.8325C22.5758 61.0654 21.7095 68.2652 20.3863 75.3877Z" fill="#1C1C1E"/>
<path d="M88.9332 46.4067C88.9332 46.4067 88.9332 46.6845 88.7479 46.9623C88.6992 47.1636 88.6373 47.3615 88.5627 47.5548L88.3404 48.1289C88.2292 48.4252 88.1551 48.6474 88.081 48.7956C88.0069 48.9437 87.9328 49.1104 87.8402 49.3511C87.7514 49.5568 87.646 49.755 87.5252 49.9437L87.1361 50.4437C87.029 50.6167 86.8831 50.7625 86.71 50.8696C86.557 50.9912 86.3961 51.1025 86.2284 51.2029C86.0576 51.3131 85.8698 51.3944 85.6726 51.4437C85.3083 51.5187 84.9319 51.5129 84.5702 51.4265C84.2084 51.3401 83.8701 51.1752 83.5791 50.9437C82.9233 50.4351 82.3701 49.8067 81.9488 49.0918C80.8582 46.8276 80.1747 44.3892 79.9294 41.8883L79.2439 44.5734C79.2439 44.7092 79.1698 45.0055 79.0216 45.4623C78.9104 45.8882 78.8363 46.24 78.7622 46.4808C78.6881 46.7215 78.5955 47.0734 78.4473 47.5363C78.3305 47.9134 78.1945 48.2842 78.0397 48.6474L77.5951 49.6844C77.4529 50.0269 77.2792 50.3555 77.0763 50.6659C76.8813 50.9487 76.671 51.2207 76.4464 51.4807C76.2321 51.7262 75.9823 51.9384 75.7054 52.1103C75.2937 52.4307 74.7816 52.5947 74.2603 52.5733C74.0589 52.5553 73.8631 52.4969 73.6848 52.4014C73.5065 52.3059 73.3494 52.1754 73.2229 52.0177C72.9166 51.599 72.6616 51.1452 72.4633 50.6659C72.2245 50.0703 72.0566 49.4488 71.9631 48.8141L71.6852 46.7956C71.6852 46.0919 71.5555 45.4252 71.5184 44.7771C71.4814 44.129 71.5184 43.5549 71.5184 43.0549V41.9253C71.5247 41.6857 71.607 41.4542 71.7536 41.2645C71.9001 41.0747 72.1032 40.9365 72.3336 40.8698C72.7597 40.6846 72.9635 40.8698 72.9635 41.2401C72.9186 42.911 73.0053 44.5828 73.2229 46.24C73.5563 49.5548 74.1862 51.0548 75.0755 50.7585C75.5051 50.4714 75.8504 50.0751 76.0759 49.6104L76.6132 48.4437L77.1134 47.3141C77.2616 46.9808 77.4098 46.5363 77.5765 46.0178L77.9656 44.8141C77.9656 44.5178 78.1509 44.0549 78.2805 43.4808C78.4102 42.9068 78.5029 42.4438 78.5584 42.2401C78.6786 41.7956 78.7714 41.3441 78.8363 40.8883C78.9598 40.2216 79.0339 39.8142 79.0587 39.6661C79.0587 39.4994 79.1513 39.0735 79.281 38.3328C79.3645 37.9227 79.4264 37.5086 79.4662 37.0921C79.5151 36.8769 79.625 36.6804 79.7827 36.5261C79.9404 36.3717 80.1393 36.266 80.3555 36.2217C80.726 36.2217 80.9298 36.2217 80.9298 36.7032C81.1016 38.8656 81.3923 41.017 81.8006 43.1475C82.0583 44.8867 82.5898 46.5742 83.3753 48.1474C84.0422 49.277 84.6721 49.8511 85.2279 49.9992C85.5122 50.0226 85.7968 49.958 86.0431 49.8141C86.3276 49.6674 86.5508 49.4246 86.673 49.1289C86.8465 48.8187 86.9833 48.4893 87.0806 48.1474C87.2035 47.8137 87.3086 47.4737 87.3955 47.1289C87.5014 46.8592 87.582 46.5802 87.6364 46.2956C87.6854 46.076 87.8159 45.8833 88.0016 45.7561C88.1873 45.629 88.4142 45.5769 88.6368 45.6104C88.9332 45.7586 89.0999 45.9993 88.9332 46.4067Z" fill="#1C1C1E"/>
<path d="M76.6326 4.03706C76.6326 3.79633 76.6326 3.48152 76.6326 3.12967C76.6261 2.817 76.5825 2.5062 76.5029 2.20376C76.4371 1.93417 76.3567 1.66835 76.262 1.40748C76.1535 1.15198 75.9889 0.924149 75.7804 0.740824C75.6163 0.573124 75.4292 0.429703 75.2246 0.314906C75.0049 0.13989 74.739 0.0326672 74.4593 0.00635613C74.1796 -0.019955 73.8983 0.0357862 73.6498 0.16676C73.1179 0.417618 72.6446 0.777206 72.2604 1.2223C71.8543 1.67108 71.5057 2.16874 71.2229 2.70375C71.0191 3.07412 70.8338 3.463 70.6671 3.85188C70.4833 4.27501 70.3225 4.70772 70.1854 5.14815C70.0372 5.61111 69.926 6.01851 69.8149 6.37036C69.6826 6.80789 69.5774 7.25318 69.4999 7.70367C69.3888 8.25921 69.3147 8.68513 69.2406 8.9629C69.1664 9.24068 69.1109 9.70363 69.0182 10.3333C68.9256 10.9629 68.87 11.3518 68.833 11.5925C68.7959 11.8332 68.7403 12.2591 68.6477 12.9258C68.585 13.3123 68.5417 13.7016 68.518 14.0924C67.8881 18.9812 67.425 25.2034 67.1285 32.8514C67.1285 33.7217 67.1285 35.4254 67.0174 37.9439C65.7946 40.8327 64.6275 43.3327 63.5159 45.3512C62.4687 47.3411 61.1466 49.1739 59.5883 50.7955C57.5689 52.8695 56.0868 53.6658 55.179 53.1658C54.5862 52.8325 54.9197 51.314 56.1795 48.4622C56.9439 46.7217 58.0603 45.158 59.4586 43.8697C60.0158 43.3147 60.7263 42.9389 61.4987 42.7904C62.2712 42.6419 63.0704 42.7276 63.7938 43.0364C64.0902 43.129 64.3866 43.0364 64.6831 42.6105C64.9795 42.1845 65.1462 41.7586 64.6831 41.5734C63.9834 41.3015 63.2345 41.1791 62.4846 41.2142C61.7347 41.2493 61.0006 41.441 60.3294 41.7771C58.9238 42.4946 57.7249 43.5591 56.8464 44.8697C55.865 46.2743 55.068 47.7991 54.475 49.4066C53.9316 50.8522 53.5948 52.367 53.4746 53.9066C53.4746 54.2399 53.4746 54.4436 53.7155 54.4621C54.3181 54.6288 54.9436 54.6976 55.5681 54.6658C56.1485 54.6225 56.7179 54.4849 57.254 54.2584C57.8111 54.0307 58.3396 53.7386 58.8287 53.3881C59.379 53.0032 59.8881 52.5626 60.3479 52.0733C60.8481 51.5548 61.3113 51.0177 61.7374 50.4992C62.1635 49.9807 62.5896 49.4066 63.0157 48.74C63.4418 48.0733 63.8494 47.4252 64.1829 46.8882C64.5163 46.3511 64.8869 45.6289 65.2574 44.9252C65.6279 44.2215 65.9429 43.5919 66.2022 43.0734C66.4616 42.5549 66.721 41.9438 67.0174 41.2216C66.9433 44.9252 66.9433 52.0794 67.0174 62.6842C67.0174 63.1286 67.2397 63.2397 67.7029 63.0175C67.9169 62.955 68.1057 62.8264 68.2422 62.6501C68.3786 62.4738 68.4557 62.2589 68.4624 62.0361C68.4624 60.3879 68.4624 58.3324 68.4624 56.1287C68.4624 53.9251 68.4624 51.8325 68.4624 50.2029C68.4624 48.5733 68.4624 46.4993 68.4624 44.2401V38.2772C72.7958 28.491 75.5053 18.0645 76.4844 7.40737C76.4844 7.40737 76.4844 7.07405 76.4844 6.68516C76.5023 6.4015 76.5023 6.11699 76.4844 5.83333C76.4844 5.66666 76.4844 5.35186 76.4844 4.94445C76.5664 4.64822 76.6161 4.34399 76.6326 4.03706ZM75.1875 5.88888C75.1875 6.49998 75.1875 6.94442 75.1875 7.25923C75.1875 7.57404 75.1875 7.9444 75.0578 8.38884V8.66661C74.004 17.6274 71.7418 26.4045 68.3328 34.7588C68.4187 26.3826 69.1433 18.0252 70.5003 9.75919C70.5589 9.54649 70.6022 9.3299 70.63 9.11105C70.63 8.79624 70.7227 8.49995 70.7782 8.20366C70.8338 7.90737 70.9265 7.537 71.0006 7.05553C71.0747 6.57406 71.1858 6.18517 71.2785 5.77777L71.6305 4.57409C71.7499 4.17486 71.8985 3.78493 72.0751 3.40744C72.2262 3.09062 72.3931 2.78159 72.5753 2.48153C72.7206 2.23387 72.9163 2.01939 73.1496 1.85192C73.2351 1.77677 73.3351 1.71992 73.4435 1.68489C73.5518 1.64985 73.6662 1.63737 73.7795 1.64822C73.924 1.61651 74.0746 1.62766 74.2128 1.68029C74.351 1.73293 74.4709 1.82476 74.5576 1.94451C74.7816 2.25571 74.9219 2.61914 74.9652 3.00004C74.9652 3.463 75.1134 3.92595 75.169 4.31484C75.2029 4.8141 75.2091 5.31486 75.1875 5.81481V5.88888Z" fill="#1C1C1E"/>
<path d="M31.776 80H33.888L37.648 68.8H35.344L32.832 77.088L30.32 68.8H28.016L31.776 80ZM38.6125 69.616C38.6125 70.336 39.1405 70.896 39.8925 70.896C40.6445 70.896 41.1725 70.336 41.1725 69.616C41.1725 68.896 40.6445 68.336 39.8925 68.336C39.1405 68.336 38.6125 68.896 38.6125 69.616ZM40.8845 80V71.936H38.9005V80H40.8845ZM42.7974 75.968C42.7974 77.872 43.9014 80.128 46.6694 80.128C48.6054 80.128 49.7094 79.2 50.3334 77.776L48.7334 77.184C48.2374 78.016 47.6934 78.432 46.7814 78.432C45.5654 78.432 44.9254 77.504 44.8774 76.608H50.4294V75.792C50.4294 74.048 49.3574 71.808 46.6694 71.808C43.9014 71.808 42.7974 74.064 42.7974 75.968ZM44.9254 75.04C45.0534 74.288 45.6774 73.504 46.6694 73.504C47.7254 73.504 48.2374 74.24 48.3974 75.04H44.9254ZM52.7548 73.632V77.152C52.7548 79.152 53.8748 80.128 55.7148 80.128C56.1468 80.128 56.5788 80.048 57.0268 79.84L56.5628 78.24C56.2908 78.384 56.0668 78.432 55.7948 78.432C55.1068 78.432 54.7388 78.128 54.7388 77.12V73.632H56.8668V71.936H54.7388V68.672L52.7548 69.92V71.936H51.5068V73.632H52.7548ZM60.7484 80V76.784C60.7484 74.672 61.6284 73.504 62.5884 73.504C63.2764 73.504 63.7404 73.872 63.7404 74.832V80H65.7244V74.24C65.7244 72.624 64.7004 71.808 63.2444 71.808C62.2044 71.808 61.3404 72.384 60.7484 73.232V71.936H58.7644V80H60.7484ZM67.483 77.68C67.483 79.28 68.571 80.128 69.931 80.128C71.083 80.128 71.851 79.664 72.411 78.976L72.619 80H74.251V75.184C74.251 72.624 72.763 71.808 70.859 71.808C69.195 71.808 68.043 72.704 67.787 74.048L69.467 74.432C69.723 73.68 70.299 73.504 70.859 73.504C71.579 73.504 72.267 73.792 72.267 74.688V75.04H70.923C68.875 75.04 67.483 76.08 67.483 77.68ZM69.563 77.648C69.563 76.928 70.091 76.608 70.939 76.608H72.267V76.768C72.267 77.808 71.291 78.432 70.395 78.432C69.835 78.432 69.563 78.032 69.563 77.648ZM78.2484 80V77.04C78.2484 74.624 79.0164 73.504 79.9924 73.504C80.5844 73.504 80.9844 73.808 80.9844 74.624V80H82.9684V76.864C82.9684 74.576 83.7524 73.504 84.7124 73.504C85.3044 73.504 85.7044 73.808 85.7044 74.624V80H87.6884V74.288C87.6884 72.736 86.8084 71.808 85.2884 71.808C84.2804 71.808 83.4004 72.432 82.8244 73.472C82.4564 72.304 81.5764 71.808 80.5684 71.808C79.5284 71.808 78.8404 72.336 78.2484 73.232V71.936H76.2644V80H78.2484Z" fill="#1C1C1E"/>
</svg>
