<svg width="19" height="19" viewBox="0 0 19 19" fill="none" xmlns="http://www.w3.org/2000/svg">
<path d="M17.4697 18.5304C17.7626 18.8233 18.2374 18.8233 18.5303 18.5304C18.8232 18.2375 18.8232 17.7626 18.5303 17.4697L17.4697 18.5304ZM15.25 8.50006C15.25 12.228 12.2279 15.2501 8.5 15.2501V16.7501C13.0563 16.7501 16.75 13.0564 16.75 8.50006H15.25ZM8.5 15.2501C4.77208 15.2501 1.75 12.228 1.75 8.50006H0.25C0.25 13.0564 3.94365 16.7501 8.5 16.7501V15.2501ZM1.75 8.50006C1.75 4.77214 4.77208 1.75006 8.5 1.75006V0.250061C3.94365 0.250061 0.25 3.94371 0.25 8.50006H1.75ZM8.5 1.75006C12.2279 1.75006 15.25 4.77214 15.25 8.50006H16.75C16.75 3.94371 13.0563 0.250061 8.5 0.250061V1.75006ZM18.5303 17.4697L14.3428 13.2822L13.2821 14.3428L17.4697 18.5304L18.5303 17.4697Z" fill="white"/>
</svg>
